<?xml version="1.0" encoding="utf-8"?>
<!-- Generator: Adobe Illustrator 19.0.0, SVG Export Plug-In . SVG Version: 6.00 Build 0)  -->
<svg version="1.1" id="Layer_1" xmlns="http://www.w3.org/2000/svg" xmlns:xlink="http://www.w3.org/1999/xlink" x="0px" y="0px"
	 viewBox="0 0 344 262" style="enable-background:new 0 0 344 262;" xml:space="preserve">
<style type="text/css">
	.st0{fill:#3755A5;}
	.st1{fill:url(#XMLID_52_);}
	.st2{fill:none;stroke:#55A3DA;stroke-miterlimit:10;}
</style>
<g id="XMLID_187_">
	<g id="XMLID_701_">
		<path id="XMLID_765_" d="M23.9,222.2v-2.7h6.9c0,0.1,0,0.2,0,0.3v0.5c0,2.2-0.6,4-1.7,5.2c-1.2,1.2-2.8,1.8-5,1.8
			c-1,0-1.9-0.2-2.8-0.5c-0.8-0.3-1.5-0.8-2.2-1.4c-0.6-0.6-1.1-1.4-1.4-2.2c-0.2-0.4-0.3-0.9-0.4-1.3c-0.1-0.4-0.1-0.9-0.1-1.3
			c0-1,0.2-1.8,0.5-2.7c0.3-0.8,0.8-1.5,1.5-2.2c0.6-0.6,1.4-1.1,2.2-1.4c0.8-0.3,1.8-0.5,2.7-0.5c1.3,0,2.4,0.3,3.4,0.8
			c0.3,0.2,0.6,0.3,0.9,0.6s0.6,0.5,0.8,0.8c0.3,0.3,0.5,0.6,0.7,0.9l-3.1,1.5c-0.4-0.5-0.8-0.9-1.2-1.1c-0.5-0.2-1-0.4-1.5-0.4
			c-1.1,0-1.9,0.4-2.5,1.1c-0.6,0.7-0.9,1.7-0.9,2.9c0,1.2,0.3,2.2,0.9,2.9c0.6,0.7,1.4,1.1,2.5,1.1c0.9,0,1.6-0.2,2.2-0.7
			c0.6-0.4,1-1,1.1-1.7H23.9z"/>
		<path id="XMLID_763_" d="M41.9,218v4.6c0,1-0.1,1.8-0.2,2.2c-0.2,0.5-0.4,0.9-0.8,1.3c-0.4,0.4-0.9,0.7-1.5,0.9
			c-0.6,0.2-1.3,0.3-2.1,0.3c-0.8,0-1.5-0.1-2.1-0.3c-0.6-0.2-1.1-0.5-1.5-0.9c-0.4-0.4-0.7-0.8-0.8-1.3c-0.2-0.5-0.2-1.2-0.2-2.2
			V218h3v4.8c0,0.7,0.1,1.3,0.4,1.6c0.2,0.3,0.6,0.5,1.2,0.5c0.6,0,1-0.2,1.2-0.5c0.2-0.3,0.4-0.9,0.4-1.6V218H41.9z"/>
		<path id="XMLID_761_" d="M44.2,226.9v-13.7h3.2v13.7H44.2z"/>
		<path id="XMLID_759_" d="M50.1,226.9v-6.7h-1.3V218h1.3v-1.8c0-1,0.3-1.8,0.8-2.4c0.6-0.5,1.4-0.8,2.5-0.8c0.1,0,0.3,0,0.6,0
			c0.3,0.1,0.6,0.1,0.7,0.1v2.4c-0.1,0-0.2-0.1-0.4-0.1c-0.2,0-0.3,0-0.3,0c-0.3,0-0.5,0.1-0.6,0.3c-0.1,0.2-0.2,0.5-0.2,0.9v1.4
			h1.6v2.2h-1.6v6.7H50.1z"/>
		<path id="XMLID_757_" d="M76.9,226.9h-3.3l-0.8-5.6c-0.1-0.5-0.1-0.9-0.1-1.3c0-0.4-0.1-0.9-0.1-1.6c-0.1,0.6-0.3,1.3-0.5,2
			c0,0.1-0.1,0.3-0.1,0.4l-1.8,6.1h-2.4l-1.8-6.1c0-0.1-0.1-0.2-0.1-0.4c-0.2-0.8-0.4-1.5-0.5-2c0,0.6-0.1,1.1-0.1,1.4
			c0,0.2,0,0.4-0.1,0.7c0,0.3-0.1,0.6-0.1,0.7l-0.8,5.6h-3.3l2-12.9h3.5l2,6.7c0,0.1,0.1,0.2,0.1,0.2c0.2,0.6,0.3,1.1,0.3,1.5
			c0-0.2,0.1-0.4,0.1-0.8c0-0.1,0.1-0.4,0.3-1l2-6.7h3.5L76.9,226.9z"/>
		<path id="XMLID_754_" d="M88.1,218v8.9h-2.9v-1.4c-0.4,0.6-0.9,1.1-1.4,1.4c-0.5,0.3-1.1,0.4-1.8,0.4c-1.2,0-2.1-0.4-2.9-1.3
			c-0.3-0.4-0.6-0.9-0.8-1.5c-0.2-0.6-0.3-1.2-0.3-2c0-1.5,0.4-2.6,1.1-3.5c0.7-0.9,1.7-1.3,3-1.3c0.7,0,1.2,0.1,1.7,0.4
			c0.5,0.3,0.9,0.7,1.3,1.3V218H88.1z M85.3,222.5c0-0.7-0.2-1.3-0.6-1.6c-0.4-0.4-0.9-0.6-1.5-0.6s-1.1,0.2-1.5,0.6
			c-0.4,0.4-0.6,1-0.6,1.7c0,0.7,0.2,1.2,0.6,1.6c0.4,0.4,0.9,0.6,1.5,0.6c0.6,0,1.1-0.2,1.5-0.6C85.2,223.7,85.3,223.2,85.3,222.5z
			"/>
		<path id="XMLID_752_" d="M90.5,226.9v-13.7h3.1v4.8c0,0.2,0,0.5,0,0.9c0,0.3,0,0.6-0.1,0.7c0.4-0.7,0.9-1.2,1.4-1.5
			c0.5-0.3,1.2-0.5,1.9-0.5c0.6,0,1.1,0.1,1.6,0.3c0.4,0.2,0.8,0.5,1.1,0.8c0.3,0.3,0.4,0.7,0.5,1.1c0.1,0.5,0.2,1.1,0.2,1.9v5.1
			h-3.2v-4.8c0-0.7-0.1-1.2-0.3-1.6c-0.2-0.3-0.6-0.5-1.1-0.5c-0.6,0-1.1,0.2-1.4,0.7c-0.3,0.5-0.4,1.3-0.4,2.4v3.7H90.5z"/>
		<path id="XMLID_749_" d="M111.9,218v8.9H109v-1.4c-0.4,0.6-0.9,1.1-1.4,1.4c-0.5,0.3-1.1,0.4-1.8,0.4c-1.2,0-2.1-0.4-2.9-1.3
			c-0.3-0.4-0.6-0.9-0.8-1.5c-0.2-0.6-0.3-1.2-0.3-2c0-1.5,0.4-2.6,1.1-3.5c0.7-0.9,1.7-1.3,3-1.3c0.7,0,1.2,0.1,1.7,0.4
			c0.5,0.3,0.9,0.7,1.3,1.3V218H111.9z M109.1,222.5c0-0.7-0.2-1.3-0.6-1.6c-0.4-0.4-0.9-0.6-1.5-0.6s-1.1,0.2-1.5,0.6
			c-0.4,0.4-0.6,1-0.6,1.7c0,0.7,0.2,1.2,0.6,1.6c0.4,0.4,0.9,0.6,1.5,0.6c0.6,0,1.1-0.2,1.5-0.6
			C108.9,223.7,109.1,223.2,109.1,222.5z"/>
		<path id="XMLID_747_" d="M114.3,226.9V218h3v2.1c0.3-0.8,0.7-1.3,1.2-1.7c0.5-0.4,1.2-0.6,1.9-0.6c0.2,0,0.3,0,0.4,0
			c0.1,0,0.1,0,0.2,0c0.1,0,0.1,0,0.2,0l-0.3,2.9c-0.2-0.1-0.4-0.1-0.6-0.2c-0.2,0-0.4,0-0.5,0c-0.8,0-1.4,0.2-1.8,0.7
			c-0.4,0.5-0.6,1.1-0.6,2v3.7H114.3z"/>
		<path id="XMLID_744_" d="M131.9,218v8.9H129v-1.4c-0.4,0.6-0.9,1.1-1.4,1.4c-0.5,0.3-1.1,0.4-1.8,0.4c-1.2,0-2.1-0.4-2.9-1.3
			c-0.3-0.4-0.6-0.9-0.8-1.5c-0.2-0.6-0.3-1.2-0.3-2c0-1.5,0.4-2.6,1.1-3.5c0.7-0.9,1.7-1.3,3-1.3c0.7,0,1.2,0.1,1.7,0.4
			c0.5,0.3,0.9,0.7,1.3,1.3V218H131.9z M129.1,222.5c0-0.7-0.2-1.3-0.6-1.6c-0.4-0.4-0.9-0.6-1.5-0.6s-1.1,0.2-1.5,0.6
			c-0.4,0.4-0.6,1-0.6,1.7c0,0.7,0.2,1.2,0.6,1.6c0.4,0.4,0.9,0.6,1.5,0.6c0.6,0,1.1-0.2,1.5-0.6
			C128.9,223.7,129.1,223.2,129.1,222.5z"/>
		<path id="XMLID_742_" d="M133.4,226.2l0.7-2.4c0.5,0.4,1,0.7,1.5,0.9c0.5,0.2,1.1,0.3,1.7,0.3c0.4,0,0.7-0.1,0.9-0.2
			c0.2-0.1,0.3-0.3,0.3-0.5c0-0.4-0.4-0.7-1.2-0.9c-0.3-0.1-0.5-0.1-0.7-0.2c-1-0.3-1.6-0.6-2-1c-0.4-0.4-0.7-1-0.7-1.6
			c0-0.9,0.3-1.6,1-2.1c0.6-0.5,1.5-0.8,2.6-0.8c0.5,0,1.1,0.1,1.7,0.2c0.5,0.1,1.1,0.3,1.8,0.6l-0.7,2.2c-0.4-0.3-0.9-0.5-1.3-0.6
			c-0.4-0.1-0.8-0.2-1.3-0.2c-0.4,0-0.6,0.1-0.8,0.2c-0.2,0.1-0.3,0.3-0.3,0.5c0,0.3,0.4,0.6,1.2,0.8c0.3,0.1,0.4,0.1,0.4,0.1
			c1.1,0.3,1.8,0.7,2.3,1.1c0.4,0.4,0.6,1,0.6,1.7c0,0.9-0.4,1.6-1.1,2.2c-0.7,0.6-1.6,0.8-2.8,0.8c-0.8,0-1.5-0.1-2.2-0.3
			S134,226.5,133.4,226.2z"/>
		<path id="XMLID_740_" d="M143,226.9v-13.7h3.1v4.8c0,0.2,0,0.5,0,0.9c0,0.3,0,0.6-0.1,0.7c0.4-0.7,0.9-1.2,1.4-1.5
			c0.5-0.3,1.2-0.5,1.9-0.5c0.6,0,1.1,0.1,1.6,0.3c0.4,0.2,0.8,0.5,1.1,0.8c0.3,0.3,0.4,0.7,0.5,1.1c0.1,0.5,0.2,1.1,0.2,1.9v5.1
			h-3.2v-4.8c0-0.7-0.1-1.2-0.3-1.6c-0.2-0.3-0.6-0.5-1.1-0.5c-0.6,0-1.1,0.2-1.4,0.7c-0.3,0.5-0.4,1.3-0.4,2.4v3.7H143z"/>
		<path id="XMLID_738_" d="M155.3,226.9l0-6.7H154V218h1.3v-2.7h3.1v2.7h1.3v2.2h-1.3v6.7H155.3z"/>
		<path id="XMLID_736_" d="M161.3,226.9V218h3v2.1c0.3-0.8,0.7-1.3,1.2-1.7c0.5-0.4,1.2-0.6,1.9-0.6c0.2,0,0.3,0,0.4,0
			c0.1,0,0.1,0,0.2,0s0.1,0,0.2,0l-0.3,2.9c-0.2-0.1-0.4-0.1-0.6-0.2c-0.2,0-0.4,0-0.5,0c-0.8,0-1.4,0.2-1.8,0.7
			c-0.4,0.5-0.6,1.1-0.6,2v3.7H161.3z"/>
		<path id="XMLID_733_" d="M178.9,218v8.9H176v-1.4c-0.4,0.6-0.9,1.1-1.4,1.4c-0.5,0.3-1.1,0.4-1.8,0.4c-1.2,0-2.1-0.4-2.9-1.3
			c-0.3-0.4-0.6-0.9-0.8-1.5s-0.3-1.2-0.3-2c0-1.5,0.4-2.6,1.1-3.5c0.7-0.9,1.7-1.3,3-1.3c0.7,0,1.2,0.1,1.7,0.4
			c0.5,0.3,0.9,0.7,1.3,1.3V218H178.9z M176.1,222.5c0-0.7-0.2-1.3-0.6-1.6c-0.4-0.4-0.9-0.6-1.5-0.6s-1.1,0.2-1.5,0.6
			c-0.4,0.4-0.6,1-0.6,1.7c0,0.7,0.2,1.2,0.6,1.6c0.4,0.4,0.9,0.6,1.5,0.6c0.6,0,1.1-0.2,1.5-0.6
			C175.9,223.7,176.1,223.2,176.1,222.5z"/>
		<path id="XMLID_729_" d="M187.1,226.9V214h3.5c1.4,0,2.4,0,3.1,0.1c0.6,0.1,1.1,0.3,1.5,0.5c0.5,0.3,0.8,0.6,1.1,1
			c0.3,0.4,0.4,1,0.4,1.6c0,0.7-0.2,1.3-0.6,1.8s-1,0.8-1.8,1c0.9,0.1,1.6,0.4,2.2,1c0.5,0.6,0.8,1.3,0.8,2.3c0,0.7-0.1,1.3-0.4,1.8
			c-0.3,0.5-0.7,1-1.2,1.2c-0.4,0.2-1,0.4-1.6,0.5c-0.7,0.1-1.8,0.1-3.2,0.1H187.1z M190.4,219.2h0.7c0.9,0,1.5-0.1,1.8-0.3
			c0.3-0.2,0.5-0.5,0.5-1c0-0.5-0.2-0.8-0.5-1c-0.3-0.2-0.9-0.3-1.8-0.3h-0.8V219.2z M190.4,224.3h1.2c0.8,0,1.4-0.1,1.8-0.3
			c0.4-0.2,0.5-0.5,0.5-1c0-0.5-0.2-0.9-0.5-1.1c-0.3-0.2-0.9-0.3-1.8-0.3h-1.3V224.3z"/>
		<path id="XMLID_727_" d="M208.4,218v4.6c0,1-0.1,1.8-0.2,2.2c-0.2,0.5-0.4,0.9-0.8,1.3c-0.4,0.4-0.9,0.7-1.5,0.9
			c-0.6,0.2-1.3,0.3-2.1,0.3c-0.8,0-1.5-0.1-2.1-0.3c-0.6-0.2-1.1-0.5-1.5-0.9c-0.4-0.4-0.7-0.8-0.8-1.3c-0.2-0.5-0.2-1.2-0.2-2.2
			V218h3v4.8c0,0.7,0.1,1.3,0.4,1.6c0.2,0.3,0.6,0.5,1.2,0.5c0.6,0,1-0.2,1.2-0.5c0.2-0.3,0.4-0.9,0.4-1.6V218H208.4z"/>
		<path id="XMLID_725_" d="M209.8,226.2l0.7-2.4c0.5,0.4,1,0.7,1.5,0.9c0.5,0.2,1.1,0.3,1.7,0.3c0.4,0,0.7-0.1,0.9-0.2
			c0.2-0.1,0.3-0.3,0.3-0.5c0-0.4-0.4-0.7-1.2-0.9c-0.3-0.1-0.5-0.1-0.7-0.2c-1-0.3-1.6-0.6-2-1c-0.4-0.4-0.7-1-0.7-1.6
			c0-0.9,0.3-1.6,1-2.1c0.6-0.5,1.5-0.8,2.6-0.8c0.5,0,1.1,0.1,1.8,0.2c0.5,0.1,1.1,0.3,1.8,0.6l-0.7,2.2c-0.4-0.3-0.9-0.5-1.3-0.6
			c-0.4-0.1-0.8-0.2-1.3-0.2c-0.4,0-0.6,0.1-0.8,0.2c-0.2,0.1-0.3,0.3-0.3,0.5c0,0.3,0.4,0.6,1.2,0.8c0.3,0.1,0.4,0.1,0.4,0.1
			c1.1,0.3,1.8,0.7,2.3,1.1c0.4,0.4,0.6,1,0.6,1.7c0,0.9-0.4,1.6-1.1,2.2c-0.7,0.6-1.6,0.8-2.8,0.8c-0.8,0-1.5-0.1-2.2-0.3
			C211,226.8,210.4,226.5,209.8,226.2z"/>
		<path id="XMLID_722_" d="M219.3,226.9V218h3.1v8.9H219.3z M219.7,215.7L219.7,215.7c0-0.3,0.1-0.6,0.4-0.8
			c0.2-0.2,0.5-0.3,0.8-0.3c0.3,0,0.6,0.1,0.8,0.3s0.3,0.5,0.3,0.8c0,0.3-0.1,0.6-0.3,0.8c-0.2,0.2-0.5,0.3-0.8,0.3
			c-0.3,0-0.6-0.1-0.8-0.4C219.8,216.3,219.7,216,219.7,215.7z"/>
		<path id="XMLID_720_" d="M225,226.9V218h2.9v1.8c0.4-0.7,0.9-1.2,1.4-1.6c0.5-0.3,1.2-0.5,2-0.5c0.6,0,1.1,0.1,1.6,0.3
			c0.4,0.2,0.8,0.5,1.1,0.8c0.3,0.3,0.4,0.7,0.5,1.1c0.1,0.5,0.2,1.1,0.2,1.9v5.1h-3.2v-4.8c0-0.7-0.1-1.2-0.3-1.6
			c-0.2-0.3-0.6-0.5-1.1-0.5c-0.6,0-1.1,0.2-1.4,0.7c-0.3,0.5-0.4,1.3-0.4,2.4v3.7H225z"/>
		<path id="XMLID_717_" d="M246.1,223.1h-6.8c0,0.7,0.2,1.2,0.5,1.6c0.3,0.4,0.8,0.6,1.5,0.6c0.5,0,0.9-0.1,1.2-0.3
			c0.3-0.2,0.6-0.5,0.7-0.8l2.4,1c-0.3,0.7-0.8,1.2-1.5,1.6c-0.7,0.4-1.6,0.6-2.6,0.6c-1.6,0-2.8-0.4-3.7-1.3
			c-0.9-0.8-1.4-2-1.4-3.4c0-1.4,0.5-2.5,1.4-3.5c0.9-0.9,2.1-1.4,3.6-1.4c1.5,0,2.6,0.5,3.5,1.4c0.4,0.5,0.8,1,1,1.7
			c0.2,0.6,0.3,1.4,0.3,2.2V223.1z M243,221.3c-0.1-0.5-0.2-0.9-0.6-1.2c-0.3-0.3-0.7-0.5-1.2-0.5c-0.5,0-0.9,0.1-1.2,0.4
			c-0.3,0.3-0.5,0.7-0.6,1.3H243z"/>
		<path id="XMLID_715_" d="M247,226.2l0.7-2.4c0.5,0.4,1,0.7,1.5,0.9c0.5,0.2,1.1,0.3,1.7,0.3c0.4,0,0.7-0.1,0.9-0.2
			c0.2-0.1,0.3-0.3,0.3-0.5c0-0.4-0.4-0.7-1.2-0.9c-0.3-0.1-0.5-0.1-0.7-0.2c-1-0.3-1.6-0.6-2-1c-0.4-0.4-0.7-1-0.7-1.6
			c0-0.9,0.3-1.6,1-2.1c0.6-0.5,1.5-0.8,2.6-0.8c0.5,0,1.1,0.1,1.8,0.2c0.5,0.1,1.1,0.3,1.8,0.6l-0.7,2.2c-0.4-0.3-0.9-0.5-1.3-0.6
			c-0.4-0.1-0.8-0.2-1.3-0.2c-0.4,0-0.6,0.1-0.8,0.2c-0.2,0.1-0.3,0.3-0.3,0.5c0,0.3,0.4,0.6,1.2,0.8c0.3,0.1,0.4,0.1,0.4,0.1
			c1.1,0.3,1.8,0.7,2.3,1.1c0.4,0.4,0.6,1,0.6,1.7c0,0.9-0.4,1.6-1.1,2.2c-0.7,0.6-1.6,0.8-2.8,0.8c-0.8,0-1.5-0.1-2.2-0.3
			C248.3,226.8,247.7,226.5,247,226.2z"/>
		<path id="XMLID_713_" d="M255.8,226.2l0.7-2.4c0.5,0.4,1,0.7,1.5,0.9c0.5,0.2,1.1,0.3,1.7,0.3c0.4,0,0.7-0.1,0.9-0.2
			c0.2-0.1,0.3-0.3,0.3-0.5c0-0.4-0.4-0.7-1.2-0.9c-0.3-0.1-0.5-0.1-0.7-0.2c-1-0.3-1.6-0.6-2-1c-0.4-0.4-0.7-1-0.7-1.6
			c0-0.9,0.3-1.6,1-2.1c0.6-0.5,1.5-0.8,2.6-0.8c0.5,0,1.1,0.1,1.8,0.2c0.5,0.1,1.1,0.3,1.8,0.6l-0.7,2.2c-0.4-0.3-0.9-0.5-1.3-0.6
			c-0.4-0.1-0.8-0.2-1.3-0.2c-0.4,0-0.6,0.1-0.8,0.2c-0.2,0.1-0.3,0.3-0.3,0.5c0,0.3,0.4,0.6,1.2,0.8c0.3,0.1,0.4,0.1,0.4,0.1
			c1.1,0.3,1.8,0.7,2.3,1.1c0.4,0.4,0.6,1,0.6,1.7c0,0.9-0.4,1.6-1.1,2.2c-0.7,0.6-1.6,0.8-2.8,0.8c-0.8,0-1.5-0.1-2.2-0.3
			C257,226.8,256.4,226.5,255.8,226.2z"/>
		<path id="XMLID_711_" d="M271.3,226.9V214h7.9v2.8h-4.5v2.2h4.2v2.8h-4.2v5.1H271.3z"/>
		<path id="XMLID_708_" d="M290.4,222.5c0,0.7-0.1,1.3-0.4,1.8c-0.3,0.6-0.6,1.1-1.1,1.6c-0.5,0.5-1.1,0.8-1.6,1.1
			c-0.6,0.2-1.2,0.3-1.9,0.3c-0.7,0-1.3-0.1-1.9-0.3c-0.6-0.2-1.1-0.6-1.6-1c-0.5-0.5-0.8-1-1.1-1.6c-0.3-0.5-0.4-1.2-0.4-1.8
			c0-0.7,0.1-1.3,0.4-1.8c0.2-0.6,0.6-1.1,1.1-1.6c0.5-0.4,1-0.8,1.6-1c0.6-0.2,1.2-0.3,1.9-0.3c0.7,0,1.3,0.1,1.9,0.3
			c0.6,0.2,1.1,0.6,1.6,1c0.5,0.4,0.9,1,1.1,1.6C290.2,221.2,290.4,221.8,290.4,222.5z M287.2,222.5c0-0.7-0.2-1.2-0.5-1.6
			c-0.3-0.4-0.8-0.6-1.4-0.6c-0.6,0-1,0.2-1.4,0.6c-0.3,0.4-0.5,0.9-0.5,1.6c0,0.7,0.2,1.2,0.5,1.6c0.4,0.4,0.8,0.6,1.4,0.6
			s1-0.2,1.4-0.6C287.1,223.6,287.2,223.1,287.2,222.5z"/>
		<path id="XMLID_706_" d="M292.2,226.9V218h3v2.1c0.3-0.8,0.7-1.3,1.2-1.7c0.5-0.4,1.2-0.6,1.9-0.6c0.2,0,0.3,0,0.4,0
			c0.1,0,0.1,0,0.2,0s0.1,0,0.2,0l-0.3,2.9c-0.2-0.1-0.4-0.1-0.6-0.2c-0.2,0-0.4,0-0.5,0c-0.8,0-1.4,0.2-1.8,0.7
			c-0.4,0.5-0.6,1.1-0.6,2v3.7H292.2z"/>
		<path id="XMLID_704_" d="M309.4,218v4.6c0,1-0.1,1.8-0.2,2.2c-0.2,0.5-0.4,0.9-0.8,1.3c-0.4,0.4-0.9,0.7-1.5,0.9
			c-0.6,0.2-1.3,0.3-2.1,0.3c-0.8,0-1.5-0.1-2.1-0.3c-0.6-0.2-1.1-0.5-1.5-0.9c-0.4-0.4-0.7-0.8-0.8-1.3c-0.2-0.5-0.2-1.2-0.2-2.2
			V218h3v4.8c0,0.7,0.1,1.3,0.4,1.6c0.2,0.3,0.6,0.5,1.2,0.5c0.6,0,1-0.2,1.2-0.5c0.2-0.3,0.4-0.9,0.4-1.6V218H309.4z"/>
		<path id="XMLID_702_" d="M323.5,226.9V222c0-0.8-0.1-1.3-0.3-1.6c-0.2-0.3-0.5-0.5-1-0.5c-0.6,0-1,0.2-1.2,0.6
			c-0.2,0.4-0.3,1.2-0.3,2.5v3.8h-3V222c0-0.8-0.1-1.3-0.3-1.6c-0.2-0.3-0.5-0.4-1-0.4c-0.6,0-1,0.2-1.2,0.6
			c-0.2,0.4-0.3,1.2-0.3,2.5v3.8h-3.1V218h3.1v1.6c0.4-0.6,0.8-1.1,1.3-1.4c0.5-0.3,1-0.5,1.7-0.5c0.7,0,1.3,0.1,1.8,0.4
			c0.4,0.3,0.8,0.7,1,1.3c0.4-0.6,0.8-1,1.3-1.3c0.5-0.3,1.1-0.4,1.8-0.4c0.5,0,1,0.1,1.4,0.3c0.4,0.2,0.8,0.5,1,0.8
			c0.2,0.3,0.4,0.6,0.5,1c0.1,0.3,0.1,1,0.1,1.8v0.2v5.1H323.5z"/>
	</g>
</g>
<g id="XMLID_1_">
	<g id="XMLID_992_">
		<path id="XMLID_1087_" d="M19.8,237.2c0.8-0.1,1.8-0.2,2.9-0.2c1.9,0,3.3,0.4,4.2,1.3c0.9,0.9,1.5,2.1,1.5,3.8
			c0,1.7-0.5,3.1-1.5,4.1c-1,1-2.6,1.5-4.6,1.5c-1,0-1.8,0-2.5-0.1V237.2z M21.2,246.4c0.3,0.1,0.8,0.1,1.4,0.1
			c2.9,0,4.5-1.6,4.5-4.4c0-2.5-1.4-4-4.2-4c-0.7,0-1.2,0.1-1.6,0.1V246.4z"/>
		<path id="XMLID_1084_" d="M30.9,244c0,1.8,1.2,2.6,2.6,2.6c1,0,1.6-0.2,2.1-0.4l0.2,1c-0.5,0.2-1.3,0.5-2.5,0.5
			c-2.3,0-3.7-1.5-3.7-3.8s1.3-4.1,3.5-4.1c2.5,0,3.1,2.2,3.1,3.5c0,0.3,0,0.5,0,0.6H30.9z M34.9,243c0-0.9-0.4-2.2-1.9-2.2
			c-1.4,0-2,1.3-2.1,2.2H34.9z"/>
		<path id="XMLID_1082_" d="M38.5,240l1.5,4.2c0.2,0.7,0.4,1.3,0.6,1.9h0c0.2-0.6,0.4-1.2,0.6-1.9l1.5-4.2h1.4l-2.9,7.5h-1.3L37,240
			H38.5z"/>
		<path id="XMLID_1079_" d="M46,244c0,1.8,1.2,2.6,2.6,2.6c1,0,1.6-0.2,2.1-0.4l0.2,1c-0.5,0.2-1.3,0.5-2.5,0.5
			c-2.3,0-3.7-1.5-3.7-3.8s1.3-4.1,3.5-4.1c2.5,0,3.1,2.2,3.1,3.5c0,0.3,0,0.5,0,0.6H46z M50,243c0-0.9-0.4-2.2-1.9-2.2
			c-1.4,0-2,1.3-2.1,2.2H50z"/>
		<path id="XMLID_1077_" d="M53,236.5h1.4v11H53V236.5z"/>
		<path id="XMLID_1074_" d="M63.5,243.7c0,2.8-1.9,4-3.7,4c-2,0-3.6-1.5-3.6-3.9c0-2.5,1.6-4,3.7-4C62,239.8,63.5,241.4,63.5,243.7z
			 M57.5,243.8c0,1.6,0.9,2.9,2.3,2.9c1.3,0,2.3-1.2,2.3-2.9c0-1.3-0.6-2.9-2.3-2.9C58.2,240.8,57.5,242.3,57.5,243.8z"/>
		<path id="XMLID_1071_" d="M65.2,242.4c0-1,0-1.7-0.1-2.5h1.2l0.1,1.3h0c0.6-0.9,1.4-1.5,2.7-1.5c1.8,0,3.2,1.5,3.2,3.8
			c0,2.7-1.6,4-3.4,4c-1,0-1.9-0.4-2.3-1.2h0v4.1h-1.4V242.4z M66.5,244.4c0,0.2,0,0.4,0.1,0.6c0.2,0.9,1.1,1.6,2,1.6
			c1.4,0,2.3-1.2,2.3-2.9c0-1.5-0.8-2.8-2.2-2.8c-0.9,0-1.8,0.7-2.1,1.7c0,0.2-0.1,0.4-0.1,0.6V244.4z"/>
		<path id="XMLID_1069_" d="M74,242c0-0.8,0-1.4-0.1-2h1.2l0.1,1.2h0c0.4-0.7,1.1-1.4,2.4-1.4c1,0,1.8,0.6,2.1,1.5h0
			c0.2-0.4,0.5-0.7,0.8-1c0.5-0.3,0.9-0.5,1.7-0.5c1,0,2.5,0.7,2.5,3.3v4.4h-1.3v-4.3c0-1.4-0.5-2.3-1.6-2.3c-0.8,0-1.4,0.6-1.6,1.2
			c-0.1,0.2-0.1,0.4-0.1,0.7v4.6h-1.3V243c0-1.2-0.5-2.1-1.6-2.1c-0.9,0-1.5,0.7-1.7,1.4c-0.1,0.2-0.1,0.4-0.1,0.7v4.5H74V242z"/>
		<path id="XMLID_1066_" d="M87.7,244c0,1.8,1.2,2.6,2.6,2.6c1,0,1.6-0.2,2.1-0.4l0.2,1c-0.5,0.2-1.3,0.5-2.5,0.5
			c-2.3,0-3.7-1.5-3.7-3.8s1.3-4.1,3.5-4.1c2.5,0,3.1,2.2,3.1,3.5c0,0.3,0,0.5,0,0.6H87.7z M91.7,243c0-0.9-0.4-2.2-1.9-2.2
			c-1.4,0-2,1.3-2.1,2.2H91.7z"/>
		<path id="XMLID_1064_" d="M94.7,242c0-0.8,0-1.4-0.1-2h1.2l0.1,1.2h0c0.4-0.7,1.2-1.4,2.5-1.4c1,0,2.7,0.6,2.7,3.2v4.5h-1.4v-4.3
			c0-1.2-0.4-2.2-1.7-2.2c-0.9,0-1.6,0.6-1.8,1.4c-0.1,0.2-0.1,0.4-0.1,0.6v4.5h-1.4V242z"/>
		<path id="XMLID_1062_" d="M104.9,237.8v2.2h2v1h-2v4.1c0,0.9,0.3,1.5,1,1.5c0.4,0,0.6,0,0.8-0.1l0.1,1c-0.3,0.1-0.7,0.2-1.2,0.2
			c-0.6,0-1.1-0.2-1.5-0.6c-0.4-0.4-0.5-1.1-0.5-2V241h-1.2v-1h1.2v-1.8L104.9,237.8z"/>
		<path id="XMLID_1060_" d="M113.1,238.2h-3.2V237h7.7v1.1h-3.2v9.3h-1.4V238.2z"/>
		<path id="XMLID_1058_" d="M118.7,236.5h1.4v4.7h0c0.2-0.4,0.6-0.7,1-1c0.4-0.2,0.9-0.4,1.4-0.4c1,0,2.6,0.6,2.6,3.2v4.5h-1.4v-4.3
			c0-1.2-0.4-2.2-1.7-2.2c-0.9,0-1.6,0.6-1.8,1.4c-0.1,0.2-0.1,0.4-0.1,0.7v4.5h-1.4V236.5z"/>
		<path id="XMLID_1056_" d="M127.3,242.3c0-0.9,0-1.6-0.1-2.3h1.2l0,1.5h0.1c0.3-1,1.2-1.6,2.1-1.6c0.2,0,0.3,0,0.4,0v1.3
			c-0.1,0-0.3,0-0.5,0c-1,0-1.6,0.7-1.8,1.8c0,0.2-0.1,0.4-0.1,0.6v4h-1.4V242.3z"/>
		<path id="XMLID_1053_" d="M139,243.7c0,2.8-1.9,4-3.7,4c-2,0-3.6-1.5-3.6-3.9c0-2.5,1.6-4,3.7-4C137.5,239.8,139,241.4,139,243.7z
			 M133,243.8c0,1.6,0.9,2.9,2.3,2.9c1.3,0,2.3-1.2,2.3-2.9c0-1.3-0.6-2.9-2.3-2.9C133.7,240.8,133,242.3,133,243.8z"/>
		<path id="XMLID_1051_" d="M147,245.4c0,0.8,0,1.5,0.1,2h-1.2l-0.1-1.2h0c-0.4,0.6-1.1,1.4-2.5,1.4c-1.2,0-2.6-0.7-2.6-3.3V240h1.4
			v4.2c0,1.4,0.4,2.4,1.7,2.4c0.9,0,1.6-0.6,1.8-1.2c0.1-0.2,0.1-0.5,0.1-0.7V240h1.4V245.4z"/>
		<path id="XMLID_1048_" d="M155.7,240c0,0.5-0.1,1.1-0.1,2.1v4.4c0,1.7-0.3,2.8-1.1,3.4c-0.7,0.7-1.8,0.9-2.7,0.9
			c-0.9,0-1.9-0.2-2.5-0.6l0.3-1c0.5,0.3,1.3,0.6,2.2,0.6c1.4,0,2.4-0.7,2.4-2.6v-0.8h0c-0.4,0.7-1.2,1.3-2.4,1.3
			c-1.9,0-3.2-1.6-3.2-3.7c0-2.5,1.7-4,3.4-4c1.3,0,2,0.7,2.3,1.3h0l0.1-1.1H155.7z M154.3,242.9c0-0.2,0-0.4-0.1-0.6
			c-0.2-0.8-0.9-1.4-1.9-1.4c-1.3,0-2.2,1.1-2.2,2.8c0,1.5,0.7,2.7,2.2,2.7c0.8,0,1.6-0.5,1.9-1.4c0.1-0.2,0.1-0.5,0.1-0.7V242.9z"
			/>
		<path id="XMLID_1046_" d="M157.9,236.5h1.4v4.7h0c0.2-0.4,0.6-0.7,1-1c0.4-0.2,0.9-0.4,1.4-0.4c1,0,2.6,0.6,2.6,3.2v4.5H163v-4.3
			c0-1.2-0.5-2.2-1.7-2.2c-0.9,0-1.6,0.6-1.8,1.4c-0.1,0.2-0.1,0.4-0.1,0.7v4.5h-1.4V236.5z"/>
		<path id="XMLID_1044_" d="M177.2,247.2c-0.5,0.2-1.5,0.5-2.8,0.5c-2.9,0-5.2-1.9-5.2-5.3c0-3.3,2.2-5.5,5.5-5.5
			c1.3,0,2.1,0.3,2.5,0.5l-0.3,1.1c-0.5-0.2-1.2-0.4-2.1-0.4c-2.5,0-4.1,1.6-4.1,4.3c0,2.6,1.5,4.2,4,4.2c0.8,0,1.7-0.2,2.2-0.4
			L177.2,247.2z"/>
		<path id="XMLID_1041_" d="M185.5,243.7c0,2.8-1.9,4-3.7,4c-2,0-3.6-1.5-3.6-3.9c0-2.5,1.6-4,3.7-4
			C184,239.8,185.5,241.4,185.5,243.7z M179.5,243.8c0,1.6,0.9,2.9,2.3,2.9c1.3,0,2.3-1.2,2.3-2.9c0-1.3-0.6-2.9-2.3-2.9
			C180.2,240.8,179.5,242.3,179.5,243.8z"/>
		<path id="XMLID_1038_" d="M194,243.7c0,2.8-1.9,4-3.7,4c-2,0-3.6-1.5-3.6-3.9c0-2.5,1.6-4,3.7-4C192.5,239.8,194,241.4,194,243.7z
			 M188,243.8c0,1.6,0.9,2.9,2.3,2.9c1.3,0,2.3-1.2,2.3-2.9c0-1.3-0.6-2.9-2.3-2.9C188.7,240.8,188,242.3,188,243.8z"/>
		<path id="XMLID_1035_" d="M195.7,242.4c0-1,0-1.7-0.1-2.5h1.2l0.1,1.3h0c0.6-0.9,1.4-1.5,2.7-1.5c1.8,0,3.2,1.5,3.2,3.8
			c0,2.7-1.6,4-3.4,4c-1,0-1.9-0.4-2.3-1.2h0v4.1h-1.3V242.4z M197,244.4c0,0.2,0,0.4,0.1,0.6c0.2,0.9,1.1,1.6,2,1.6
			c1.4,0,2.3-1.2,2.3-2.9c0-1.5-0.8-2.8-2.2-2.8c-0.9,0-1.8,0.7-2.1,1.7c0,0.2-0.1,0.4-0.1,0.6V244.4z"/>
		<path id="XMLID_1032_" d="M205.3,244c0,1.8,1.2,2.6,2.6,2.6c1,0,1.6-0.2,2.1-0.4l0.2,1c-0.5,0.2-1.3,0.5-2.5,0.5
			c-2.3,0-3.7-1.5-3.7-3.8s1.3-4.1,3.5-4.1c2.5,0,3.1,2.2,3.1,3.5c0,0.3,0,0.5,0,0.6H205.3z M209.3,243c0-0.9-0.4-2.2-1.9-2.2
			c-1.4,0-2,1.3-2.1,2.2H209.3z"/>
		<path id="XMLID_1030_" d="M212.3,242.3c0-0.9,0-1.6-0.1-2.3h1.2l0,1.5h0.1c0.3-1,1.2-1.6,2.1-1.6c0.2,0,0.3,0,0.4,0v1.3
			c-0.1,0-0.3,0-0.5,0c-1,0-1.6,0.7-1.8,1.8c0,0.2-0.1,0.4-0.1,0.6v4h-1.4V242.3z"/>
		<path id="XMLID_1027_" d="M221.5,247.5l-0.1-0.9h0c-0.4,0.6-1.2,1.1-2.3,1.1c-1.5,0-2.3-1.1-2.3-2.2c0-1.8,1.6-2.8,4.5-2.8v-0.2
			c0-0.6-0.2-1.7-1.7-1.7c-0.7,0-1.4,0.2-2,0.6l-0.3-0.9c0.6-0.4,1.5-0.7,2.5-0.7c2.3,0,2.9,1.6,2.9,3.1v2.8c0,0.7,0,1.3,0.1,1.8
			H221.5z M221.3,243.7c-1.5,0-3.2,0.2-3.2,1.7c0,0.9,0.6,1.3,1.3,1.3c1,0,1.6-0.6,1.8-1.3c0-0.1,0.1-0.3,0.1-0.4V243.7z"/>
		<path id="XMLID_1025_" d="M226.4,237.8v2.2h2v1h-2v4.1c0,0.9,0.3,1.5,1,1.5c0.4,0,0.6,0,0.8-0.1l0.1,1c-0.3,0.1-0.7,0.2-1.2,0.2
			c-0.6,0-1.1-0.2-1.5-0.6c-0.4-0.4-0.5-1.1-0.5-2V241h-1.2v-1h1.2v-1.8L226.4,237.8z"/>
		<path id="XMLID_1022_" d="M231.4,237.9c0,0.5-0.3,0.8-0.9,0.8c-0.5,0-0.8-0.4-0.8-0.8c0-0.5,0.4-0.9,0.9-0.9
			C231,237,231.4,237.4,231.4,237.9z M229.8,247.5V240h1.4v7.5H229.8z"/>
		<path id="XMLID_1019_" d="M240.3,243.7c0,2.8-1.9,4-3.7,4c-2,0-3.6-1.5-3.6-3.9c0-2.5,1.6-4,3.7-4
			C238.8,239.8,240.3,241.4,240.3,243.7z M234.3,243.8c0,1.6,0.9,2.9,2.3,2.9c1.3,0,2.3-1.2,2.3-2.9c0-1.3-0.6-2.9-2.3-2.9
			C235,240.8,234.3,242.3,234.3,243.8z"/>
		<path id="XMLID_1017_" d="M242,242c0-0.8,0-1.4-0.1-2h1.2l0.1,1.2h0c0.4-0.7,1.2-1.4,2.5-1.4c1,0,2.7,0.6,2.7,3.2v4.5H247v-4.3
			c0-1.2-0.5-2.2-1.7-2.2c-0.9,0-1.6,0.6-1.8,1.4c-0.1,0.2-0.1,0.4-0.1,0.6v4.5H242V242z"/>
		<path id="XMLID_1015_" d="M253.8,242.8v1h-3.8v-1H253.8z"/>
		<path id="XMLID_1013_" d="M260.8,242.6h-4.1v3.8h4.5v1.1h-5.9V237h5.6v1.1h-4.3v3.3h4.1V242.6z"/>
		<path id="XMLID_1011_" d="M262.9,245.8c0.6,0.4,1.5,0.7,2.4,0.7c1.4,0,2.2-0.7,2.2-1.8c0-1-0.6-1.5-2-2.1c-1.7-0.6-2.8-1.5-2.8-3
			c0-1.6,1.3-2.8,3.4-2.8c1.1,0,1.8,0.2,2.3,0.5l-0.4,1.1c-0.3-0.2-1-0.5-2-0.5c-1.4,0-2,0.9-2,1.6c0,1,0.6,1.5,2.1,2
			c1.8,0.7,2.7,1.5,2.7,3.1c0,1.6-1.2,3-3.7,3c-1,0-2.1-0.3-2.7-0.7L262.9,245.8z"/>
		<path id="XMLID_1009_" d="M272.7,238.2h-3.2V237h7.7v1.1H274v9.3h-1.4V238.2z"/>
		<path id="XMLID_1006_" d="M278.4,237.2c0.8-0.1,1.8-0.2,2.9-0.2c1.9,0,3.3,0.4,4.2,1.3c0.9,0.9,1.5,2.1,1.5,3.8
			c0,1.7-0.5,3.1-1.5,4.1c-1,1-2.6,1.5-4.6,1.5c-1,0-1.8,0-2.5-0.1V237.2z M279.8,246.4c0.3,0.1,0.8,0.1,1.4,0.1
			c2.9,0,4.5-1.6,4.5-4.4c0-2.5-1.4-4-4.2-4c-0.7,0-1.2,0.1-1.6,0.1V246.4z"/>
		<path id="XMLID_1004_" d="M287.8,246.7c0-0.6,0.4-1,0.9-1s0.9,0.4,0.9,1c0,0.6-0.4,1-0.9,1C288.2,247.7,287.8,247.2,287.8,246.7z"
			/>
		<path id="XMLID_1002_" d="M294.2,247.5v-0.8l1.1-1c2.6-2.5,3.7-3.8,3.8-5.3c0-1-0.5-2-2-2c-0.9,0-1.7,0.5-2.1,0.9l-0.4-1
			c0.7-0.6,1.7-1,2.9-1c2.2,0,3.1,1.5,3.1,2.9c0,1.9-1.3,3.4-3.5,5.4l-0.8,0.7v0h4.5v1.1H294.2z"/>
		<path id="XMLID_999_" d="M308.9,242.3c0,3.4-1.3,5.3-3.5,5.3c-2,0-3.3-1.8-3.3-5.2c0-3.4,1.5-5.2,3.5-5.2
			C307.7,237.2,308.9,239.1,308.9,242.3z M303.4,242.5c0,2.6,0.8,4.1,2,4.1c1.4,0,2.1-1.6,2.1-4.2c0-2.5-0.6-4.1-2-4.1
			C304.3,238.3,303.4,239.7,303.4,242.5z"/>
		<path id="XMLID_996_" d="M316.9,242.3c0,3.4-1.3,5.3-3.5,5.3c-2,0-3.3-1.8-3.3-5.2c0-3.4,1.5-5.2,3.5-5.2
			C315.6,237.2,316.9,239.1,316.9,242.3z M311.4,242.5c0,2.6,0.8,4.1,2,4.1c1.4,0,2.1-1.6,2.1-4.2c0-2.5-0.6-4.1-2-4.1
			C312.2,238.3,311.4,239.7,311.4,242.5z"/>
		<path id="XMLID_993_" d="M322.3,247.5v-2.7h-4.7v-0.9l4.5-6.4h1.5v6.3h1.4v1.1h-1.4v2.7H322.3z M322.3,243.7v-3.4
			c0-0.5,0-1.1,0-1.6h0c-0.3,0.6-0.6,1-0.8,1.5l-2.5,3.4v0H322.3z"/>
	</g>
</g>
<g id="XMLID_5_">
	<g id="XMLID_71_">
		<g id="XMLID_286_">
			<path id="XMLID_295_" class="st0" d="M55.6,102.1V87H94c0,0.7,0,1.2,0.1,1.6v2.6c0,12.4-3.2,22-9.7,28.7
				c-6.5,6.8-15.7,10.2-27.6,10.2c-5.6,0-10.8-0.9-15.5-2.6c-4.5-1.7-8.6-4.4-12.1-8c-3.4-3.5-6.1-7.5-7.9-12.2
				c-1-2.5-1.7-4.9-2.2-7.4c-0.5-2.5-0.7-4.9-0.7-7.4c0-5.3,0.9-10.2,2.7-14.8c1.8-4.4,4.6-8.5,8.2-12.2c3.5-3.5,7.6-6.1,12.3-7.9
				c4.7-1.8,9.7-2.7,15.1-2.7c7,0,13.2,1.4,18.6,4.2c1.7,0.8,3.4,1.9,5.1,3.2c1.7,1.3,3.2,2.7,4.7,4.2c1.4,1.5,2.7,3.2,3.9,5
				l-17,8.1c-2-2.8-4.3-4.9-6.8-6.2c-2.6-1.3-5.4-2-8.5-2c-5.9,0-10.5,1.9-13.8,5.8c-3.3,3.9-5,9.2-5,16c0,6.9,1.7,12.3,5,16.2
				c3.3,3.9,7.9,5.8,13.8,5.8c5,0,9.1-1.2,12.4-3.7c3.4-2.5,5.3-5.7,5.8-9.7H55.6z"/>
			<path id="XMLID_293_" class="st0" d="M188.4,128.5h-18.3l-4.2-31c-0.4-2.8-0.6-5.2-0.8-7.3c-0.2-2.1-0.5-5-0.7-8.8
				c-0.6,3.4-1.5,7.2-2.7,11.4c-0.3,0.8-0.5,1.5-0.6,2.1l-9.8,33.6h-13l-9.8-33.6c-0.1-0.6-0.3-1.3-0.6-2.1
				c-1.4-4.4-2.3-8.2-2.7-11.4c-0.3,3.6-0.5,6.3-0.7,8c-0.1,0.9-0.2,2.3-0.4,4c-0.2,1.8-0.3,3.1-0.4,4l-4.2,31h-18.2l11.1-71.8h19.4
				l10.8,37c0.2,0.7,0.3,1.1,0.4,1.3c0.9,3.1,1.6,5.9,1.9,8.4c0.1-0.9,0.3-2.3,0.7-4.3c0.1-0.5,0.6-2.3,1.5-5.5l10.9-36.9h19.4
				L188.4,128.5z"/>
			<path id="XMLID_289_" class="st0" d="M198.9,128.5V56.7h19.7c7.9,0,13.6,0.3,17,0.8c3.2,0.5,6,1.4,8.3,2.7c2.6,1.5,4.6,3.5,6,5.8
				c1.4,2.5,2.1,5.4,2.1,8.6c0,4.1-1,7.4-3.1,9.8c-2.1,2.4-5.4,4.2-9.9,5.4c5,0.4,9,2.2,12,5.3c2.9,3.2,4.3,7.5,4.3,12.8
				c0,3.8-0.8,7.1-2.5,10.1c-1.6,3-3.9,5.3-6.9,6.8c-2.3,1.2-5.3,2.2-9,2.8c-3.9,0.5-9.8,0.8-17.7,0.8H198.9z M217,85.4h3.9
				c4.9,0,8.2-0.5,9.9-1.6c1.8-1.1,2.7-2.9,2.7-5.5c0-2.7-0.8-4.6-2.5-5.7c-1.8-1.1-5.1-1.7-9.9-1.7H217V85.4z M217,113.8h6.9
				c4.6,0,7.9-0.6,9.8-1.8c2-1.1,2.9-3,2.9-5.8c0-3-0.9-5.1-2.6-6.3c-1.8-1.2-5-1.8-9.8-1.8H217V113.8z"/>
			<path id="XMLID_287_" class="st0" d="M267,128.5V56.7h44v15.8H286v12.4h23.5v15.4H286v28.1H267z"/>
		</g>
	</g>
	<g id="XMLID_9_">
		<g id="XMLID_340_">
			<path id="XMLID_355_" class="st0" d="M86.6,157.3v-7h17.8c0,0.3,0,0.6,0,0.7v1.2c0,5.7-1.5,10.2-4.5,13.3
				c-3,3.2-7.3,4.7-12.8,4.7c-2.6,0-5-0.4-7.2-1.2c-2.1-0.8-4-2-5.6-3.7c-1.6-1.6-2.8-3.5-3.6-5.6c-0.5-1.1-0.8-2.3-1-3.4
				c-0.2-1.1-0.3-2.3-0.3-3.4c0-2.4,0.4-4.7,1.3-6.8c0.8-2,2.1-3.9,3.8-5.6c1.6-1.6,3.5-2.8,5.7-3.7c2.2-0.8,4.5-1.2,7-1.2
				c3.2,0,6.1,0.6,8.6,1.9c0.8,0.4,1.6,0.9,2.4,1.5c0.8,0.6,1.5,1.2,2.2,1.9c0.7,0.7,1.3,1.5,1.8,2.3l-7.8,3.8
				c-0.9-1.3-2-2.2-3.2-2.9c-1.2-0.6-2.5-0.9-3.9-0.9c-2.7,0-4.8,0.9-6.4,2.7c-1.5,1.8-2.3,4.3-2.3,7.4c0,3.2,0.8,5.7,2.3,7.5
				c1.5,1.8,3.6,2.7,6.4,2.7c2.3,0,4.2-0.6,5.7-1.7c1.6-1.1,2.5-2.6,2.7-4.5H86.6z"/>
			<path id="XMLID_353_" class="st0" d="M109.9,169.5v-33.2h9v25.4h11.2v7.8H109.9z"/>
			<path id="XMLID_350_" class="st0" d="M168.7,153c0,2.4-0.4,4.6-1.3,6.7c-0.9,2-2.1,3.9-3.9,5.6c-1.7,1.6-3.6,2.9-5.8,3.8
				c-2.3,0.9-4.5,1.3-6.8,1.3c-2.3,0-4.5-0.4-6.8-1.3c-2.2-0.9-4.1-2.1-5.8-3.8c-1.6-1.6-2.9-3.4-3.9-5.6c-0.9-2.1-1.4-4.4-1.4-6.7
				s0.5-4.5,1.4-6.7c0.9-2.2,2.2-4.1,3.9-5.6c1.7-1.7,3.6-2.9,5.8-3.8c2.1-0.9,4.4-1.3,6.8-1.3c2.4,0,4.7,0.4,6.8,1.3
				c2.1,0.9,4.1,2.1,5.7,3.8s3,3.5,3.9,5.6C168.2,148.4,168.7,150.6,168.7,153z M151,162.7c2.5,0,4.6-0.9,6.3-2.8
				c0.8-0.9,1.4-2,1.8-3.1c0.4-1.1,0.6-2.4,0.6-3.9c0-2.8-0.8-5.1-2.5-7c-1.7-1.9-3.7-2.8-6.2-2.8c-2.5,0-4.6,0.9-6.2,2.8
				s-2.4,4.2-2.4,7c0,2.9,0.8,5.2,2.4,7C146.3,161.8,148.4,162.7,151,162.7z"/>
			<path id="XMLID_346_" class="st0" d="M174.3,169.5v-33.2h9.1c3.7,0,6.3,0.1,7.9,0.4c1.5,0.2,2.8,0.6,3.9,1.3
				c1.2,0.7,2.1,1.6,2.8,2.7c0.6,1.1,1,2.5,1,4c0,1.9-0.5,3.4-1.4,4.5c-1,1.1-2.5,1.9-4.6,2.5c2.3,0.2,4.1,1,5.5,2.4
				c1.3,1.5,2,3.5,2,5.9c0,1.8-0.4,3.3-1.1,4.6c-0.8,1.4-1.8,2.4-3.2,3.2c-1.1,0.6-2.4,1-4.2,1.3c-1.8,0.2-4.5,0.4-8.2,0.4H174.3z
				 M182.7,149.6h1.8c2.3,0,3.8-0.2,4.6-0.7c0.8-0.5,1.2-1.4,1.2-2.6c0-1.3-0.4-2.1-1.2-2.6c-0.8-0.5-2.4-0.8-4.6-0.8h-1.9V149.6z
				 M182.7,162.7h3.2c2.1,0,3.7-0.3,4.5-0.8c0.9-0.5,1.4-1.4,1.4-2.7c0-1.4-0.4-2.3-1.2-2.9c-0.8-0.5-2.3-0.8-4.5-0.8h-3.3V162.7z"
				/>
			<path id="XMLID_343_" class="st0" d="M201.9,169.5l11.4-33.2h11.3l11.5,33.2h-9l-1.7-5.9h-12.9l-1.7,5.9H201.9z M214.6,157.1h9
				l-3.4-10.9c-0.1-0.2-0.2-0.7-0.4-1.6c-0.3-1-0.5-2-0.7-2.8c-0.2,0.8-0.4,1.5-0.5,2.3c-0.2,0.8-0.4,1.5-0.6,2.1L214.6,157.1z"/>
			<path id="XMLID_341_" class="st0" d="M239.3,169.5v-33.2h9v25.4h11.2v7.8H239.3z"/>
		</g>
	</g>
	<linearGradient id="XMLID_52_" gradientUnits="userSpaceOnUse" x1="12.3333" y1="37.014" x2="331.6667" y2="37.014">
		<stop  offset="0" style="stop-color:#D7591E"/>
		<stop  offset="0.5" style="stop-color:#FEE96A"/>
		<stop  offset="1" style="stop-color:#CF6831"/>
	</linearGradient>
	<path id="XMLID_7_" class="st1" d="M172,20.3c65.9,0,124.1,14.7,159.7,41.4c-34.3-29.7-93-49.3-159.7-49.3S46.6,31.9,12.3,61.7
		C47.9,35,106.1,20.3,172,20.3z"/>
</g>
<g id="XMLID_4_">
	<g id="XMLID_273_">
		<path id="XMLID_274_" class="st2" d="M328.7,189.8c-19.6,0-19.6-12-39.2-12c-19.6,0-19.6,12-39.2,12c-19.6,0-19.6-12-39.2-12
			c-19.6,0-19.6,12-39.2,12c-19.6,0-19.6-12-39.2-12c-19.6,0-19.6,12-39.2,12c-19.6,0-19.6-12-39.2-12s-19.6,12-39.2,12"/>
	</g>
	<g id="XMLID_271_">
		<path id="XMLID_272_" class="st2" d="M328.7,193.3c-19.6,0-19.6-12-39.2-12c-19.6,0-19.6,12-39.2,12c-19.6,0-19.6-12-39.2-12
			c-19.6,0-19.6,12-39.2,12c-19.6,0-19.6-12-39.2-12c-19.6,0-19.6,12-39.2,12c-19.6,0-19.6-12-39.2-12s-19.6,12-39.2,12"/>
	</g>
	<g id="XMLID_29_">
		<path id="XMLID_270_" class="st2" d="M328.7,196.8c-19.6,0-19.6-12-39.2-12c-19.6,0-19.6,12-39.2,12c-19.6,0-19.6-12-39.2-12
			c-19.6,0-19.6,12-39.2,12c-19.6,0-19.6-12-39.2-12c-19.6,0-19.6,12-39.2,12c-19.6,0-19.6-12-39.2-12s-19.6,12-39.2,12"/>
	</g>
	<g id="XMLID_24_">
		<path id="XMLID_28_" class="st2" d="M328.7,200.3c-19.6,0-19.6-12-39.2-12c-19.6,0-19.6,12-39.2,12c-19.6,0-19.6-12-39.2-12
			c-19.6,0-19.6,12-39.2,12c-19.6,0-19.6-12-39.2-12c-19.6,0-19.6,12-39.2,12c-19.6,0-19.6-12-39.2-12s-19.6,12-39.2,12"/>
	</g>
	<g id="XMLID_8_">
		<path id="XMLID_21_" class="st2" d="M328.7,203.8c-19.6,0-19.6-12-39.2-12c-19.6,0-19.6,12-39.2,12c-19.6,0-19.6-12-39.2-12
			c-19.6,0-19.6,12-39.2,12c-19.6,0-19.6-12-39.2-12c-19.6,0-19.6,12-39.2,12c-19.6,0-19.6-12-39.2-12s-19.6,12-39.2,12"/>
	</g>
</g>
</svg>
